<svg width="525" height="569" viewBox="0 0 525 569" fill="none" xmlns="http://www.w3.org/2000/svg">
<rect x="442.072" y="86" width="27.8876" height="246.324" transform="rotate(42.1338 442.072 86)" fill="#00A6F4"/>
<path d="M123.172 245.32C129.118 238.783 139.237 238.303 145.775 244.248L154.569 252.247L30.013 389.202C24.8316 394.899 16.0128 395.317 10.3156 390.136V390.136C4.61846 384.955 4.20032 376.136 9.38169 370.439L123.172 245.32Z" fill="#00A6F4"/>
<path d="M118.884 251.931L126.094 244.49C132.244 238.144 142.373 237.985 148.719 244.134L248.423 340.748L230.079 359.679L118.884 251.931Z" fill="#00A6F4"/>
<rect x="179.872" y="210.984" width="26.8956" height="138.703" transform="rotate(-45.9183 179.872 210.984)" fill="#00A6F4"/>
<path d="M230.59 152.995C225.195 147.771 225.057 139.162 230.282 133.768V133.768C235.506 128.373 244.114 128.235 249.509 133.46L312.341 194.309L293.422 213.845L230.59 152.995Z" fill="#00A6F4"/>
<path d="M180.602 211.436C168.831 199.939 159.986 185.791 154.807 170.174C149.627 154.557 148.264 137.927 150.832 121.675C153.4 105.424 159.823 90.0237 169.565 76.7644C179.306 63.5051 192.083 52.7724 206.824 45.4648C221.565 38.1572 237.843 34.4874 254.294 34.7625C270.745 35.0377 286.89 39.2497 301.379 47.0462C315.868 54.8426 328.278 65.9965 337.571 79.5741C346.864 93.1517 352.769 108.758 354.791 125.086L328.301 128.368C326.803 116.271 322.428 104.709 315.543 94.6501C308.659 84.5911 299.465 76.3278 288.731 70.5518C277.997 64.7758 266.035 61.6552 253.847 61.4514C241.66 61.2476 229.6 63.9664 218.679 69.3802C207.758 74.7941 198.293 82.7454 191.076 92.5686C183.859 102.392 179.1 113.801 177.198 125.841C175.295 137.881 176.305 150.202 180.142 161.771C183.979 173.341 190.532 183.823 199.253 192.34L180.602 211.436Z" fill="#00A6F4"/>
<path d="M372.593 254.55C389.638 271.138 402.475 291.541 410.031 314.052C417.586 336.562 419.639 360.526 416.019 383.936C412.398 407.345 403.209 429.521 389.221 448.605C375.233 467.689 356.852 483.126 335.618 493.625C314.384 504.124 290.915 509.379 267.174 508.949C243.434 508.519 220.113 502.418 199.165 491.156C178.217 479.894 160.251 463.798 146.77 444.217C133.29 424.636 124.688 402.139 121.684 378.609L150.932 375.031C153.34 393.893 160.236 411.927 171.042 427.624C181.849 443.32 196.251 456.223 213.043 465.251C229.836 474.279 248.53 479.17 267.561 479.514C286.592 479.859 305.406 475.647 322.427 467.23C339.449 458.814 354.183 446.439 365.397 431.141C376.61 415.843 383.976 398.067 386.878 379.301C389.781 360.535 388.135 341.325 382.078 323.28C376.022 305.235 365.731 288.879 352.067 275.582L372.593 254.55Z" fill="#00A6F4"/>
<path d="M459 111.012L436.175 124.762C435.167 125.404 434.112 125.679 433.012 125.587C431.912 125.496 430.95 125.129 430.125 124.487C429.3 123.846 428.658 123.045 428.2 122.084C427.742 121.123 427.65 120.045 427.925 118.85L433.975 92.8625L413.762 75.4C412.846 74.575 412.274 73.6345 412.046 72.5785C411.819 71.5225 411.887 70.4922 412.25 69.4875C412.613 68.4828 413.163 67.6578 413.9 67.0125C414.637 66.3672 415.645 65.9547 416.925 65.775L443.6 63.4375L453.912 38.9625C454.371 37.8625 455.082 37.0375 456.046 36.4875C457.011 35.9375 457.995 35.6625 459 35.6625C460.005 35.6625 460.989 35.9375 461.953 36.4875C462.918 37.0375 463.629 37.8625 464.087 38.9625L474.4 63.4375L501.075 65.775C502.358 65.9583 503.367 66.3708 504.1 67.0125C504.833 67.6542 505.383 68.4792 505.75 69.4875C506.117 70.4958 506.186 71.528 505.959 72.584C505.732 73.64 505.158 74.5787 504.237 75.4L484.025 92.8625L490.075 118.85C490.35 120.042 490.258 121.12 489.8 122.084C489.342 123.048 488.7 123.849 487.875 124.487C487.05 125.125 486.087 125.492 484.987 125.587C483.887 125.683 482.833 125.408 481.825 124.762L459 111.012Z" fill="#00A6F4"/>
<path d="M354.822 124.5C354.822 131.956 348.778 138 341.322 138C333.866 138 327.822 131.956 327.822 124.5C327.822 117.044 333.866 111 341.322 111C348.778 111 354.822 117.044 354.822 124.5Z" fill="#00A6F4"/>
<path d="M151.822 379C151.822 387.284 145.106 394 136.822 394C128.538 394 121.822 387.284 121.822 379C121.822 370.716 128.538 364 136.822 364C145.106 364 151.822 370.716 151.822 379Z" fill="#00A6F4"/>
<path d="M228.427 358.8C233.251 363.482 238.977 367.132 245.257 369.529C251.537 371.927 258.239 373.021 264.955 372.746C271.672 372.47 278.262 370.831 284.324 367.927C290.387 365.024 295.795 360.917 300.22 355.857C304.644 350.796 307.993 344.888 310.062 338.493C312.13 332.097 312.876 325.347 312.252 318.654C311.629 311.961 309.65 305.465 306.436 299.561C303.222 293.657 298.841 288.469 293.558 284.313L277.002 305.355C279.43 307.265 281.444 309.649 282.921 312.362C284.398 315.075 285.307 318.061 285.593 321.136C285.88 324.212 285.537 327.314 284.587 330.253C283.636 333.192 282.097 335.907 280.064 338.233C278.031 340.558 275.545 342.445 272.759 343.78C269.973 345.114 266.945 345.867 263.858 345.994C260.772 346.12 257.692 345.618 254.806 344.516C251.92 343.414 249.289 341.737 247.072 339.585L228.427 358.8Z" fill="#00A6F4"/>
</svg>
